HIERARCHY
ROOT Hips
{
    OFFSET 0.000000 0.000000 0.000000
    CHANNELS 6 Xposition Yposition Zposition Zrotation Xrotation Yrotation
        JOINT Chest
        {
            OFFSET -0.000000 31.471069 -0.000000
            CHANNELS 3 Zrotation Xrotation Yrotation
            JOINT Neck
            {
                OFFSET -0.000000 23.202770 0.000000
                CHANNELS 3 Zrotation Xrotation Yrotation
                JOINT Head
                {
                    OFFSET -0.000000 11.000000 0.000000
                    CHANNELS 3 Zrotation Xrotation Yrotation
                    End Site
                    {
                        OFFSET -0.000000 17.000000 0.000000
                    }
                }
            }
            JOINT LeftCollar
            {
                OFFSET -0.000000 23.202770 0.000000
                CHANNELS 3 Zrotation Xrotation Yrotation
                JOINT LeftShoulder
                {
                    OFFSET 21.000000 -0.000000 0.000000
                    CHANNELS 3 Zrotation Xrotation Yrotation
                    JOINT LeftElbow
                    {
                        OFFSET 23.506504 0.000000 0.000000
                        CHANNELS 3 Zrotation Xrotation Yrotation
                        JOINT LeftWrist
                        {
                            OFFSET 26.183235 0.000000 0.000000
                            CHANNELS 3 Zrotation Xrotation Yrotation
                            End Site
                            {
                                OFFSET 0.000000 -15.000001 0.000000
                            }
                        }
                    }
                }
            }
            JOINT RightCollar
            {
                OFFSET -0.000000 23.202770 0.000000
                CHANNELS 3 Zrotation Xrotation Yrotation
                JOINT RightShoulder
                {
                    OFFSET -21.000000 0.000000 0.000000
                    CHANNELS 3 Zrotation Xrotation Yrotation
                    JOINT RightElbow
                    {
                        OFFSET -23.506504 0.000000 0.000000
                        CHANNELS 3 Zrotation Xrotation Yrotation
                        JOINT RightWrist
                        {
                            OFFSET -26.183235 0.000000 0.000000
                            CHANNELS 3 Zrotation Xrotation Yrotation
                            End Site
                            {
                                OFFSET -0.000000 -15.000001 0.000000
                            }
                        }
                    }
                }
            }
        }
    JOINT LeftHip
    {
        OFFSET 12.000000 0.000000 0.000000
        CHANNELS 3 Zrotation Xrotation Yrotation
        JOINT LeftKnee
        {
            OFFSET -0.000000 -41.026867 0.000000
            CHANNELS 3 Zrotation Xrotation Yrotation
            JOINT LeftAnkle
            {
                OFFSET -0.000000 -42.711906 0.000000
                CHANNELS 3 Zrotation Xrotation Yrotation
                End Site
                {
                    OFFSET -0.000000 -5.000000 17.000000
                }
            }
        }
    }
    JOINT RightHip
    {
        OFFSET -12.000000 0.000000 0.000000
        CHANNELS 3 Zrotation Xrotation Yrotation
        JOINT RightKnee
        {
            OFFSET -0.000000 -41.026867 0.000000
            CHANNELS 3 Zrotation Xrotation Yrotation
            JOINT RightAnkle
            {
                OFFSET -0.000000 -42.711906 0.000000
                CHANNELS 3 Zrotation Xrotation Yrotation
                End Site
                {
                    OFFSET -0.000000 -5.000000 17.000000
                }
            }
        }
    }
}
MOTION
Frames:    13
Frame Time:    0.010000
129.506210    90.646950    -29.053432    -4.949543    -1.942450    -94.701134    -4.787519    6.539259    5.393822    -0.342172    1.266368    20.412125    -20.467672    -14.712707    17.741709    -21.679810    -0.330480    1.871854    -47.759010    17.265486    -22.922092    14.764852    -3.829889    -29.082121    132.805481    38.358170    27.283617    25.070232    0.635247    2.945478    -6.857992    54.734905    75.603821    -14.297563    -4.797834    36.940929    -74.725800    0.027677    -22.600561    7.894365    -6.903083    5.406033    -4.891981    7.381939    5.689758    -9.560554    1.994647    37.201916    9.701224    8.353339    -2.050862    -4.450435    1.778647    -3.961828    4.473175    -7.759153    -31.305710    
129.591125    90.652214    -29.071966    -5.018703    -2.039305    -94.714882    -5.094304    6.689150    5.113842    0.984524    2.437763    19.064030    -21.187366    -14.742442    16.299892    -21.585434    -0.055839    -1.122778    -47.831139    17.381477    -21.498905    14.534937    -3.725663    -28.788813    132.352127    38.301762    27.511959    25.465490    0.432892    0.978311    -5.276905    54.098507    74.006065    -14.602302    -4.943460    36.773441    -72.241943    -0.571936    -21.968311    7.880002    -7.006783    5.160908    -5.016973    7.557057    5.876421    -9.520051    2.111423    37.269283    9.527270    8.338570    -2.100266    -4.271191    1.838285    -3.950962    4.092146    -7.566627    -31.089500    
129.639954    90.624901    -29.170708    -5.003619    -1.993385    -94.843239    -5.136995    6.805426    5.112743    0.784351    2.460569    19.151735    -20.925259    -14.900255    16.402615    -21.596102    0.067918    -0.978808    -47.808838    17.093414    -21.654669    14.508482    -3.733738    -28.743568    132.376770    37.881180    27.258711    25.512671    0.327157    0.993605    -5.739847    54.278141    74.406540    -14.497584    -4.830474    36.822830    -73.380005    -0.138392    -22.262346    8.229344    -7.212203    5.487840    -5.343432    7.941114    5.618821    -9.221408    2.269998    37.275406    9.608037    8.209731    -2.270115    -4.250556    1.973850    -3.553843    4.273321    -7.797482    -31.309153    
129.710083    90.626129    -29.229429    -4.998197    -1.997146    -94.901009    -5.222606    6.912047    5.041575    0.741186    2.485172    19.145489    -20.775648    -14.974622    16.401175    -21.579702    0.144255    -1.064156    -47.837757    16.890163    -21.641527    14.469293    -3.734879    -28.666340    132.261200    37.646622    27.149261    25.544029    0.275350    0.981075    -5.544427    54.304119    74.202881    -14.406054    -4.811569    36.870331    -73.099121    -0.082090    -22.125973    8.397230    -7.351829    5.545519    -5.537731    8.146436    5.571885    -9.076071    2.392471    37.301273    9.607516    8.122507    -2.339751    -4.203631    2.054253    -3.349627    4.234187    -7.820940    -31.366976    
129.803040    90.629494    -29.301674    -4.962544    -1.997132    -94.966537    -5.310407    7.003290    4.971797    0.685191    2.501250    19.155167    -20.604965    -15.048364    16.419420    -21.566433    0.196349    -1.127887    -47.884140    16.652967    -21.603121    14.390847    -3.692169    -28.566969    132.127853    37.314663    27.002779    25.574310    0.241603    0.994039    -5.347784    54.317432    73.996582    -14.363353    -4.814619    36.892139    -72.712585    -0.033531    -21.968651    8.605652    -7.549803    5.604676    -5.770087    8.385582    5.532542    -8.899532    2.539292    37.323944    9.620736    7.982986    -2.406101    -4.161364    2.154845    -3.116394    4.200603    -7.846885    -31.436958    
129.918472    90.633736    -29.385492    -4.887315    -1.993514    -95.039284    -5.397649    7.066350    4.906900    0.633806    2.525713    19.165495    -20.428909    -15.122418    16.438963    -21.558784    0.215980    -1.200729    -47.940689    16.407005    -21.526915    14.293152    -3.639199    -28.465477    131.981598    36.895878    26.801056    25.608501    0.202629    1.006129    -5.146990    54.337841    73.780403    -14.377558    -4.800510    36.894043    -72.260803    0.015245    -21.846056    8.850591    -7.817649    5.664781    -6.033092    8.660957    5.505200    -8.691428    2.702969    37.333149    9.647463    7.782466    -2.459019    -4.124623    2.272708    -2.882282    4.176283    -7.871049    -31.499826    
130.052429    90.637451    -29.477818    -4.771103    -1.986572    -95.120308    -5.482349    7.097962    4.851343    0.587429    2.558811    19.174822    -20.247469    -15.194872    16.459274    -21.557220    0.243929    -1.280547    -47.995308    16.128895    -21.431883    14.116214    -3.566196    -28.339800    131.853333    36.347485    26.503609    25.645391    0.231260    1.012601    -4.879777    54.306358    73.478287    -14.273384    -4.757492    36.954567    -71.886414    0.150479    -21.717442    9.124102    -8.158283    5.742486    -6.311906    8.980788    5.477830    -8.459310    2.866398    37.317074    9.684944    7.524810    -2.488695    -4.092932    2.400175    -2.672165    4.165623    -7.887472    -31.538742    
130.198257    90.639221    -29.575077    -4.620443    -1.976290    -95.210884    -5.562900    7.103243    4.807883    0.543018    2.596615    19.183989    -20.054655    -15.261787    16.482111    -21.562704    0.283631    -1.358038    -48.031921    15.845995    -21.339487    13.909110    -3.477470    -28.210974    131.692413    35.708260    26.124535    25.685932    0.231977    1.013553    -4.652129    54.295727    73.220802    -14.301619    -4.778654    36.935799    -71.388695    0.275488    -21.579082    9.416327    -8.564579    5.861139    -6.587946    9.354290    5.426068    -8.218432    3.006440    37.269554    9.729407    7.225157    -2.489421    -4.065048    2.526956    -2.497358    4.173563    -7.891737    -31.547461    
130.347397    90.637863    -29.673750    -4.448992    -1.962159    -95.310860    -5.638032    7.095088    4.776922    0.495809    2.633886    19.194660    -19.840508    -15.320897    16.511040    -21.577944    0.256016    -1.422484    -48.046757    15.651546    -21.221891    13.752778    -3.425646    -28.124714    131.478485    35.051006    25.656004    25.729290    0.198474    1.011824    -4.393283    54.324898    72.929672    -14.331867    -4.801301    36.908073    -70.887581    0.438673    -21.425701    9.717395    -9.019240    6.047857    -6.841768    9.788862    5.311199    -7.981874    3.100949    37.189011    9.777476    6.908697    -2.461293    -4.039526    2.640280    -2.359245    4.204105    -7.881455    -31.527660    
130.490250    90.632492    -29.770792    -4.276917    -1.942923    -95.418098    -5.707957    7.091389    4.755456    0.445655    2.675764    19.204124    -19.600750    -15.376949    16.543043    -21.600256    0.290856    -1.478601    -48.028400    15.427062    -21.111416    13.433641    -3.306047    -27.965775    131.325882    34.240658    25.015442    25.774200    0.233533    1.002429    -4.010939    54.305752    72.498299    -14.216979    -4.739994    36.953144    -70.450310    0.669926    -21.227028    10.018526    -9.495458    6.329693    -7.054077    10.287853    5.081784    -7.749672    3.134565    37.071865    9.826648    6.608788    -2.410164    -4.014153    2.726363    -2.254779    4.259235    -7.857165    -31.484369    
130.618576    90.622589    -29.864164    -4.123347    -1.916859    -95.529953    -5.771419    7.110232    4.738111    0.381845    2.725466    19.219152    -19.321362    -15.442507    16.584164    -21.632984    0.257437    -1.519324    -47.976070    15.317864    -20.986252    13.209743    -3.250918    -27.873169    131.097366    33.432758    24.245392    25.821440    0.206375    0.993036    -3.663214    54.346569    72.114067    -14.283293    -4.764897    36.879894    -69.898369    0.857051    -20.979872    10.312697    -9.964061    6.722938    -7.206295    10.845462    4.683486    -7.507522    3.096232    36.912064    9.875679    6.356487    -2.342605    -3.985752    2.774394    -2.181373    4.338270    -7.823988    -31.422607    
130.726959    90.608047    -29.953176    -4.001125    -1.882077    -95.644928    -5.827406    7.163739    4.719220    0.296551    2.793640    19.242683    -18.990290    -15.535194    16.636181    -21.672266    0.286476    -1.551947    -47.897755    15.166242    -20.854284    12.811877    -3.108697    -27.693521    130.940079    32.429245    23.242340    25.869162    0.235178    0.982748    -3.202275    54.370972    71.589409    -14.176031    -4.727537    36.876392    -69.485878    1.108293    -20.661732    10.594878    -10.399202    7.225255    -7.281443    11.443595    4.070776    -7.232685    2.974492    36.704124    9.924950    6.173038    -2.263196    -3.950868    2.778337    -2.143408    4.436867    -7.789425    -31.340834    
130.813034    90.589157    -30.038082    -3.915305    -1.836919    -95.762581    -5.876456    7.257513    4.693803    0.181571    2.886407    19.281227    -18.592705    -15.672029    16.705046    -21.717104    0.321978    -1.578682    -47.794422    15.033456    -20.720383    12.404334    -2.979402    -27.520611    130.797745    31.308937    21.993795    25.923199    0.208118    0.970195    -2.827747    54.474201    71.140816    -14.257013    -4.763229    36.746815    -68.959686    1.262727    -20.299217    10.860328    -10.780827    7.813411    -7.264538    12.051168    3.218296    -6.901198    2.757113    36.446869    9.976614    6.067729    -2.176187    -3.907680    2.736945    -2.145384    4.547603    -7.761384    -31.234673    
